<svg xmlns="http://www.w3.org/2000/svg" width="16" height="16" viewBox="0 0 16 16">
  <title>Stet symbolic: a page with a stet mark</title>
  <g fill="currentColor">
    <path fill-rule="evenodd" d="M4 1h8a2 2 0 0 1 2 2v10a2 2 0 0 1-2 2H4a2 2 0 0 1-2-2V3a2 2 0 0 1 2-2zm0 1.5a.5.5 0 0 0-.5.5v10a.5.5 0 0 0 .5.5h8a.5.5 0 0 0 .5-.5V3a.5.5 0 0 0-.5-.5z"/>
    <rect x="5" y="4.5" width="6" height="1.5" rx=".75"/>
    <rect x="5" y="7.25" width="6" height="1.5" rx=".75"/>
    <circle cx="5.75" cy="11" r=".9"/>
    <circle cx="8" cy="11" r=".9"/>
    <circle cx="10.25" cy="11" r=".9"/>
  </g>
</svg>
